<?xml version="1.0" encoding="utf-8"?>
<svg viewBox="64.669 103.849 383.539 307.706" width="383.539" height="307.706" xmlns="http://www.w3.org/2000/svg">
  <rect style="opacity: 1; fill-opacity: 1; stroke: rgb(0, 150, 72); stroke-width: 0; stroke-linecap: round; stroke-linejoin: round; stroke-miterlimit: 4; stroke-dasharray: none; stroke-opacity: 1; fill: rgb(77, 76, 76);" id="rect858" width="355.488" height="274.754" y="122.25" ry="43.622" x="78.965" transform="matrix(1, 0, 0, 1, 1.4210854715202004e-14, 0)"/>
  <g id="g7" transform="matrix(1, 0, 0, 1, 65.94410705566406, 106.62335968017578)"/>
  <g id="g9" transform="matrix(1, 0, 0, 1, 65.94410705566406, 106.62335968017578)"/>
  <g id="g11" transform="matrix(1, 0, 0, 1, 65.94410705566406, 106.62335968017578)"/>
  <g id="g13" transform="matrix(1, 0, 0, 1, 65.94410705566406, 106.62335968017578)"/>
  <g id="g15" transform="matrix(1, 0, 0, 1, 65.94410705566406, 106.62335968017578)"/>
  <g id="g17" transform="matrix(1, 0, 0, 1, 65.94410705566406, 106.62335968017578)"/>
  <g id="g19" transform="matrix(1, 0, 0, 1, 65.94410705566406, 106.62335968017578)"/>
  <g id="g21" transform="matrix(1, 0, 0, 1, 65.94410705566406, 106.62335968017578)"/>
  <g id="g23" transform="matrix(1, 0, 0, 1, 65.94410705566406, 106.62335968017578)"/>
  <g id="g25" transform="matrix(1, 0, 0, 1, 65.94410705566406, 106.62335968017578)"/>
  <g id="g27" transform="matrix(1, 0, 0, 1, 65.94410705566406, 106.62335968017578)"/>
  <g id="g29" transform="matrix(1, 0, 0, 1, 65.94410705566406, 106.62335968017578)"/>
  <g id="g31" transform="matrix(1, 0, 0, 1, 65.94410705566406, 106.62335968017578)"/>
  <g id="g33" transform="matrix(1, 0, 0, 1, 65.94410705566406, 106.62335968017578)"/>
  <g id="g35" transform="matrix(1, 0, 0, 1, 65.94410705566406, 106.62335968017578)"/>
  <path d="M 336.08 225.704 C 334.628 222.263 333.047 218.83 331.136 215.521 C 329.226 212.211 327.043 209.126 324.789 206.148 L 336.417 177.304 C 337.454 174.7 336.442 171.674 333.915 170.191 L 293.795 147.022 C 291.296 145.589 288.168 146.192 286.432 148.398 L 267.28 172.894 C 259.828 171.914 252.222 171.826 244.628 172.801 L 225.524 148.396 C 223.712 146.3 220.585 145.631 218.078 147.079 L 177.963 170.239 C 175.456 171.687 174.471 174.729 175.43 177.317 L 187.013 206.065 C 182.372 212.154 178.617 218.735 175.768 225.728 L 144.977 230.067 C 142.229 230.517 140.114 232.875 140.105 235.755 L 140.11 282.085 C 140.101 284.964 142.216 287.354 145.019 287.808 L 175.762 292.189 C 177.214 295.629 178.795 299.062 180.706 302.372 C 182.616 305.681 184.799 308.767 187.053 311.745 L 175.475 340.559 C 174.438 343.164 175.45 346.19 177.977 347.672 L 218.097 370.842 C 220.596 372.274 223.724 371.671 225.46 369.466 L 244.612 344.97 C 252.064 345.949 259.67 346.037 267.264 345.063 L 286.368 369.468 C 288.13 371.593 291.257 372.261 293.764 370.814 L 333.879 347.653 C 336.386 346.206 337.371 343.163 336.412 340.575 L 324.829 311.828 C 329.47 305.738 333.225 299.158 336.074 292.164 L 366.864 287.826 C 369.613 287.375 371.728 285.018 371.737 282.138 L 371.731 235.808 C 371.74 232.928 369.625 230.539 366.822 230.084 L 336.08 225.704 Z" id="path4" style="fill:#fdfdfd;fill-opacity:1;stroke-width:5.79008055" transform="matrix(1, 0, 0, 1, 1.4210854715202004e-14, 0)"/>
  <g id="g8" transform="matrix(0, -1.715585947037, -1.715585947037, 0, 220.620367494183, 215.000738002415)" style="transform-origin: 34.2598px 44.8795px;">
    <g id="g10" transform="scale(0.1)">
      <path d="M 330.254 315.871 C 327.074 318.331 322.633 318.34 319.428 315.913 C 316.227 313.49 315.026 309.227 316.493 305.484 L 360.558 193.943 L 308.239 193.943 C 180.442 201.491 78.681 307.548 78.681 437.215 C 78.681 504.693 105.614 567.482 154.511 614.006 L 80.77 691.498 C 10.446 624.574 -28.285 534.277 -28.285 437.215 C -28.285 266.233 94.649 123.492 256.77 92.55 C 264.175 90.811 273.906 89.526 282.621 88.617 C 295.777 87.104 309.127 86.248 322.68 86.248 L 322.68 86.82 L 360.57 86.701 L 316.506 -24.832 C 315.026 -28.587 316.236 -32.854 319.441 -35.256 C 321.044 -36.461 322.93 -37.053 324.833 -37.053 C 326.761 -37.053 328.664 -36.449 330.275 -35.214 L 549.363 133.251 C 551.562 134.93 552.86 137.552 552.86 140.334 C 552.86 143.126 551.562 145.726 549.363 147.413 L 330.254 315.871 Z M 713.48 460.371 C 713.48 356.673 667.959 258.833 588.606 191.926 L 519.677 273.71 C 574.862 320.234 606.515 388.275 606.515 460.371 C 606.515 590.05 504.77 696.094 376.943 703.634 L 324.625 703.634 L 368.689 592.084 C 370.169 588.355 368.964 584.088 365.75 581.673 C 362.544 579.246 358.118 579.259 354.924 581.715 L 135.829 750.173 C 133.629 751.877 132.331 754.468 132.331 757.263 C 132.331 760.047 133.629 762.668 135.829 764.355 L 354.946 932.804 C 356.544 934.038 358.455 934.643 360.379 934.643 C 362.282 934.643 364.172 934.051 365.771 932.846 C 368.985 930.435 370.177 926.152 368.711 922.422 L 324.647 810.888 L 362.537 810.774 L 362.537 811.341 C 376.076 811.341 389.439 810.482 402.596 808.977 C 411.315 808.068 421.049 806.779 428.442 805.04 C 590.53 774.094 713.48 631.365 713.48 460.371" style="fill-opacity: 1; fill-rule: nonzero; stroke: none; fill: rgb(77, 76, 76);" id="path12"/>
    </g>
  </g>
</svg>