<?xml version="1.0" encoding="UTF-8" standalone="no"?>
<!-- drawn by Useddenim -->

<svg
   xmlns:dc="http://purl.org/dc/elements/1.1/"
   xmlns:cc="http://creativecommons.org/ns#"
   xmlns:rdf="http://www.w3.org/1999/02/22-rdf-syntax-ns#"
   xmlns:svg="http://www.w3.org/2000/svg"
   xmlns="http://www.w3.org/2000/svg"
   xmlns:sodipodi="http://sodipodi.sourceforge.net/DTD/sodipodi-0.dtd"
   xmlns:inkscape="http://www.inkscape.org/namespaces/inkscape"
   width="1000"
   height="1000"
   version="1.1"
   id="svg8"
   sodipodi:docname="route_play.svg"
   inkscape:version="0.92.4 (5da689c313, 2019-01-14)">
  <metadata
     id="metadata14">
    <rdf:RDF>
      <cc:Work
         rdf:about="">
        <dc:format>image/svg+xml</dc:format>
        <dc:type
           rdf:resource="http://purl.org/dc/dcmitype/StillImage" />
        <dc:title>STOP</dc:title>
      </cc:Work>
    </rdf:RDF>
  </metadata>
  <defs
     id="defs12">
    <pattern
       y="0"
       x="0"
       height="6"
       width="6"
       patternUnits="userSpaceOnUse"
       id="EMFhbasepattern" />
  </defs>
  <sodipodi:namedview
     pagecolor="#838383"
     bordercolor="#666666"
     borderopacity="1"
     objecttolerance="10"
     gridtolerance="10"
     guidetolerance="10"
     inkscape:pageopacity="0"
     inkscape:pageshadow="2"
     inkscape:window-width="1920"
     inkscape:window-height="996"
     id="namedview10"
     showgrid="false"
     inkscape:zoom="0.236"
     inkscape:cx="-12.129391"
     inkscape:cy="567.89805"
     inkscape:window-x="-8"
     inkscape:window-y="-8"
     inkscape:window-maximized="1"
     inkscape:current-layer="svg8" />
  <title
     id="title2">STOP</title>
  <g
     id="g844">
    <path
       inkscape:connector-curvature="0"
       style="fill:#4d4c4c;fill-opacity:1;fill-rule:nonzero;stroke:none"
       d="m 963.99656,500.00001 c 0,123.03909 -48.87964,241.03822 -135.919,328.07753 -87.03935,87.0394 -205.03848,135.919 -328.07757,135.919 -123.03909,0 -241.11821,-48.8796 -328.07757,-135.919 C 84.883073,741.03823 36.003437,623.0391 36.003437,500.00001 36.003437,376.96092 84.883073,258.8818 171.92242,171.92244 258.88178,84.883085 376.9609,36.003455 499.99999,36.003455 c 123.03909,0 241.03822,48.87963 328.07757,135.918985 87.03936,86.95936 135.919,205.03848 135.919,328.07757 z"
       id="path817" />
    <path
       inkscape:connector-curvature="0"
       style="fill:none;stroke:none"
       d="m 963.99656,500.00001 c 0,123.03909 -48.87964,241.03822 -135.919,328.07753 -87.03935,87.0394 -205.03848,135.919 -328.07757,135.919 -123.03909,0 -241.11821,-48.8796 -328.07757,-135.919 C 84.883073,741.03823 36.003437,623.0391 36.003437,500.00001 36.003437,376.96092 84.883073,258.8818 171.92242,171.92244 258.88178,84.883085 376.9609,36.003455 499.99999,36.003455 c 123.03909,0 241.03822,48.87963 328.07757,135.918985 87.03936,86.95936 135.919,205.03848 135.919,328.07757 z"
       id="path819" />
    <path
       sodipodi:nodetypes="cccc"
       inkscape:connector-curvature="0"
       id="rect848"
       d="M 325.61428,210.85162 764.7925,500 325.61428,789.14838 Z"
       style="fill:#ffffff;fill-opacity:1;stroke:none;stroke-width:1.45427346;stroke-linecap:round;stroke-linejoin:round;stroke-miterlimit:4;stroke-dasharray:none;stroke-opacity:1" />
  </g>
</svg>
