<?xml version="1.0" encoding="UTF-8" standalone="no"?>
<svg
   xmlns:dc="http://purl.org/dc/elements/1.1/"
   xmlns:cc="http://creativecommons.org/ns#"
   xmlns:rdf="http://www.w3.org/1999/02/22-rdf-syntax-ns#"
   xmlns:svg="http://www.w3.org/2000/svg"
   xmlns="http://www.w3.org/2000/svg"
   xmlns:sodipodi="http://sodipodi.sourceforge.net/DTD/sodipodi-0.dtd"
   xmlns:inkscape="http://www.inkscape.org/namespaces/inkscape"
   enable-background="new 0 0 24 24"
   viewBox="0 0 24 24"
   fill="black"
   width="48px"
   height="48px"
   version="1.1"
   id="svg30"
   sodipodi:docname="map_slam.svg"
   inkscape:version="0.92.4 (5da689c313, 2019-01-14)">
  <metadata
     id="metadata36">
    <rdf:RDF>
      <cc:Work
         rdf:about="">
        <dc:format>image/svg+xml</dc:format>
        <dc:type
           rdf:resource="http://purl.org/dc/dcmitype/StillImage" />
        <dc:title />
      </cc:Work>
    </rdf:RDF>
  </metadata>
  <defs
     id="defs34" />
  <sodipodi:namedview
     pagecolor="#767676"
     bordercolor="#666666"
     borderopacity="1"
     objecttolerance="10"
     gridtolerance="10"
     guidetolerance="10"
     inkscape:pageopacity="0"
     inkscape:pageshadow="2"
     inkscape:window-width="1920"
     inkscape:window-height="996"
     id="namedview32"
     showgrid="false"
     inkscape:zoom="13.906433"
     inkscape:cx="20.264987"
     inkscape:cy="26.03817"
     inkscape:window-x="-8"
     inkscape:window-y="-8"
     inkscape:window-maximized="1"
     inkscape:current-layer="svg30" />
  <g
     display="none"
     id="g28">
    <g
       display="inline"
       id="g18" />
    <g
       display="inline"
       id="g26">
      <path
         d="M8,8H6v7c0,1.1,0.9,2,2,2h9v-2H8V8z"
         id="path20" />
      <path
         d="M20,3h-8c-1.1,0-2,0.9-2,2v6c0,1.1,0.9,2,2,2h8c1.1,0,2-0.9,2-2V5C22,3.9,21.1,3,20,3z M20,11h-8V7h8V11z"
         id="path22" />
      <path
         d="M4,12H2v7c0,1.1,0.9,2,2,2h9v-2H4V12z"
         id="path24" />
    </g>
  </g>
  <g
     id="g833">
    <circle
       r="11.877583"
       cy="12"
       cx="12"
       id="path820"
       style="opacity:1;fill:#4d4c4c;fill-opacity:1;stroke:#009648;stroke-width:0;stroke-linecap:round;stroke-linejoin:round;stroke-miterlimit:4;stroke-dasharray:none;stroke-opacity:1" />
    <rect
       y="7.5256629"
       x="6.6232171"
       height="5.8879905"
       width="10.591787"
       id="rect818"
       style="opacity:1;fill:#009648;fill-opacity:0.99607843;stroke:#009648;stroke-width:0;stroke-linecap:round;stroke-linejoin:round;stroke-miterlimit:4;stroke-dasharray:none;stroke-opacity:1" />
    <path
       id="path854"
       d="m 11.999999,3.0859628 -9.4005916,7.3118592 1.7041706,1.324793 7.696421,5.985337 7.686914,-5.985337 1.713677,-1.324793 z M 6.9056351,7.7620612 h 0.883196 L 8.682397,10.693373 9.6001603,7.7620612 H 10.460024 V 13.157161 H 9.6407769 V 9.8119054 L 8.9131343,12.202238 H 8.4542525 L 7.745622,9.9415326 V 13.157161 H 6.9056351 Z m 5.1695479,0 h 0.644681 l 1.287634,5.3950998 H 13.09492 l -0.16506,-0.839123 h -1.065538 l -0.165059,0.839123 h -0.912578 z m 2.340209,0 h 0.920356 0.489129 c 0.267117,0 0.49658,0.046884 0.687026,0.1408618 0.190446,0.093978 0.334021,0.2326466 0.432956,0.4156728 0.09894,0.180552 0.149503,0.3977071 0.149503,0.6524586 v 0.9091211 c 0,0.2498055 -0.05156,0.4640105 -0.152961,0.6420885 -0.09894,0.175606 -0.244239,0.310453 -0.434684,0.404438 -0.190445,0.09151 -0.417196,0.137406 -0.68184,0.137406 h -0.489129 v 2.093053 h -0.920356 z m 0.920356,0.883196 v 1.5356548 h 0.462338 c 0.07419,0 0.13916,-0.01635 0.193578,-0.05099 0.05441,-0.03462 0.09649,-0.08619 0.12617,-0.1529609 0.02968,-0.066788 0.04494,-0.1452687 0.04494,-0.2367863 V 9.1050027 c 0,-0.096466 -0.01524,-0.1787675 -0.04494,-0.2480208 -0.0272,-0.069259 -0.06743,-0.1209151 -0.121849,-0.1555528 -0.05441,-0.037092 -0.121233,-0.056172 -0.197899,-0.056172 z m -2.938224,0.9747993 -0.362957,1.8381185 h 0.72505 z"
       style="fill:#f9f9f9;fill-opacity:1;stroke-width:1.04438984"
       inkscape:connector-curvature="0" />
    <path
       id="path4-6"
       d="m 19.6965,12.277228 -7.707403,5.994302 -7.6965016,-5.984957 -1.692856,1.315974 9.4002586,7.311833 9.400259,-7.311833 z"
       style="fill:#009648;fill-opacity:0.99607843;stroke-width:1.04438984"
       inkscape:connector-curvature="0" />
    <path
       inkscape:connector-curvature="0"
       id="path861"
       d="m 20.26246,12.717291 -8.262461,6.426935 -8.2624614,-6.42607 -1.1381302,0.88406 9.4005916,7.311858 9.400591,-7.311858 z"
       style="fill:#ffffff;fill-opacity:1;stroke-width:1.04438984" />
  </g>
</svg>
