<?xml version="1.0" encoding="UTF-8" standalone="no"?>
<!-- drawn by Useddenim -->

<svg
   xmlns:dc="http://purl.org/dc/elements/1.1/"
   xmlns:cc="http://creativecommons.org/ns#"
   xmlns:rdf="http://www.w3.org/1999/02/22-rdf-syntax-ns#"
   xmlns:svg="http://www.w3.org/2000/svg"
   xmlns="http://www.w3.org/2000/svg"
   xmlns:sodipodi="http://sodipodi.sourceforge.net/DTD/sodipodi-0.dtd"
   xmlns:inkscape="http://www.inkscape.org/namespaces/inkscape"
   width="1000"
   height="1000"
   version="1.1"
   id="svg8"
   sodipodi:docname="route_reverse.svg"
   inkscape:version="0.92.4 (5da689c313, 2019-01-14)">
  <metadata
     id="metadata14">
    <rdf:RDF>
      <cc:Work
         rdf:about="">
        <dc:format>image/svg+xml</dc:format>
        <dc:type
           rdf:resource="http://purl.org/dc/dcmitype/StillImage" />
        <dc:title>STOP</dc:title>
      </cc:Work>
    </rdf:RDF>
  </metadata>
  <defs
     id="defs12" />
  <sodipodi:namedview
     pagecolor="#aaaaaa"
     bordercolor="#666666"
     borderopacity="1"
     objecttolerance="10"
     gridtolerance="10"
     guidetolerance="10"
     inkscape:pageopacity="0"
     inkscape:pageshadow="2"
     inkscape:window-width="1920"
     inkscape:window-height="996"
     id="namedview10"
     showgrid="false"
     inkscape:zoom="0.236"
     inkscape:cx="1.2271739"
     inkscape:cy="1103.7117"
     inkscape:window-x="-8"
     inkscape:window-y="-8"
     inkscape:window-maximized="1"
     inkscape:current-layer="g8" />
  <title
     id="title2">STOP</title>
  <g
     transform="matrix(45.76698,0,0,45.76698,-39.847173,-38.673061)"
     id="g8"
     style="fill:#ffffff;fill-opacity:1">
    <g
       id="g850">
      <path
         inkscape:connector-curvature="0"
         style="fill:#4d4c4c;fill-opacity:1;fill-rule:nonzero;stroke:none;stroke-width:0.02184981"
         d="m 1.6573213,11.769904 c 0,-2.688381 1.0680109,-5.2666395 2.9698043,-7.1684319 1.9017933,-1.9017944 4.4800519,-2.9698043 7.1684324,-2.9698043 2.688381,0 5.268387,1.0680099 7.168433,2.9698043 1.901793,1.9017924 2.969804,4.4800509 2.969804,7.1684319 0,2.688381 -1.068011,5.268387 -2.969804,7.168432 -1.900046,1.901794 -4.480052,2.969804 -7.168433,2.969804 -2.6883805,0 -5.2666391,-1.06801 -7.1684324,-2.969804 C 2.7253322,17.038291 1.6573213,14.458285 1.6573213,11.769904 Z"
         id="path817" />
      <path
         inkscape:connector-curvature="0"
         style="fill:none;stroke:none;stroke-width:0.02184981"
         d="m 1.6573213,11.769904 c 0,-2.688381 1.0680109,-5.2666395 2.9698043,-7.1684319 1.9017933,-1.9017944 4.4800519,-2.9698043 7.1684324,-2.9698043 2.688381,0 5.268387,1.0680099 7.168433,2.9698043 1.901793,1.9017924 2.969804,4.4800509 2.969804,7.1684319 0,2.688381 -1.068011,5.268387 -2.969804,7.168432 -1.900046,1.901794 -4.480052,2.969804 -7.168433,2.969804 -2.6883805,0 -5.2666391,-1.06801 -7.1684324,-2.969804 C 2.7253322,17.038291 1.6573213,14.458285 1.6573213,11.769904 Z"
         id="path819" />
      <path
         inkscape:connector-curvature="0"
         id="rect848"
         d="m 14.731169,6.9998961 v 9.5410829 h 2.253163 V 6.9998961 Z m -2.864165,0.00604 -7.2356211,4.7638119 7.2356211,4.763812 z"
         style="fill:#ffffff;fill-opacity:1;stroke:none;stroke-width:0.040905;stroke-linecap:round;stroke-linejoin:round;stroke-miterlimit:4;stroke-dasharray:none;stroke-opacity:1" />
    </g>
  </g>
</svg>
